HIERARCHY
ROOT Hips
{
  OFFSET 0 0.240689 0
  CHANNELS 6 Xposition Yposition Zposition Zrotation Xrotation Yrotation
  JOINT Bip01_Spine0
  {
    OFFSET 0 -24.7459 49.7988
    CHANNELS 6 Xposition Yposition Zposition Zrotation Xrotation Yrotation
    JOINT Bip01_Pelvis
    {
      OFFSET 0 0 0
      CHANNELS 6 Xposition Yposition Zposition Zrotation Xrotation Yrotation
      JOINT Bip01_Spine0_Tail
      {
        OFFSET -6.47486 -3.86022 0
        CHANNELS 6 Xposition Yposition Zposition Zrotation Xrotation Yrotation
        JOINT Bip01_Spine0_Tail1
        {
          OFFSET 10.3837 -0.00825882 0
          CHANNELS 6 Xposition Yposition Zposition Zrotation Xrotation Yrotation
          JOINT Bip01_Spine0_Tail2
          {
            OFFSET 10.3837 -0.00826263 0
            CHANNELS 6 Xposition Yposition Zposition Zrotation Xrotation Yrotation
            JOINT Bip01_Spine0_Tail3
            {
              OFFSET 10.3837 -0.00825882 0
              CHANNELS 6 Xposition Yposition Zposition Zrotation Xrotation Yrotation
              JOINT Bip01_Spine0_Tail4
              {
                OFFSET 10.3837 -0.00826263 0
                CHANNELS 6 Xposition Yposition Zposition Zrotation Xrotation Yrotation
                End Site
                {
                  OFFSET 0 0 0
                }
              }
            }
          }
        }
      }
      JOINT Bip01_R_Thigh
      {
        OFFSET 0 -1.52588e-005 -8.75617
        CHANNELS 6 Xposition Yposition Zposition Zrotation Xrotation Yrotation
        JOINT Bip01_R_Calf
        {
          OFFSET 19.7638 0 0
          CHANNELS 6 Xposition Yposition Zposition Zrotation Xrotation Yrotation
          JOINT Bip01_R_Foot
          {
            OFFSET 18.6534 0 0
            CHANNELS 6 Xposition Yposition Zposition Zrotation Xrotation Yrotation
            JOINT Bip01_R_Toe0
            {
              OFFSET 5.09145 13.9567 0
              CHANNELS 6 Xposition Yposition Zposition Zrotation Xrotation Yrotation
              JOINT Bip01_R_Toe01
              {
                OFFSET 4.28803 0 0
                CHANNELS 6 Xposition Yposition Zposition Zrotation Xrotation Yrotation
                JOINT Bip01_R_Toe02
                {
                  OFFSET 3.85801 0 0
                  CHANNELS 6 Xposition Yposition Zposition Zrotation Xrotation Yrotation
                  End Site
                  {
                    OFFSET 0 0 0
                  }
                }
              }
            }
          }
        }
      }
      JOINT Bip01_L_Thigh
      {
        OFFSET 0 1.52588e-005 8.75617
        CHANNELS 6 Xposition Yposition Zposition Zrotation Xrotation Yrotation
        JOINT Bip01_L_Calf
        {
          OFFSET 19.7638 0 0
          CHANNELS 6 Xposition Yposition Zposition Zrotation Xrotation Yrotation
          JOINT Bip01_L_Foot
          {
            OFFSET 18.6534 0 0
            CHANNELS 6 Xposition Yposition Zposition Zrotation Xrotation Yrotation
            JOINT Bip01_L_Toe0
            {
              OFFSET 5.09144 13.9567 0
              CHANNELS 6 Xposition Yposition Zposition Zrotation Xrotation Yrotation
              JOINT Bip01_L_Toe01
              {
                OFFSET 4.28802 0 0
                CHANNELS 6 Xposition Yposition Zposition Zrotation Xrotation Yrotation
                JOINT Bip01_L_Toe02
                {
                  OFFSET 3.85801 0 0
                  CHANNELS 6 Xposition Yposition Zposition Zrotation Xrotation Yrotation
                  End Site
                  {
                    OFFSET 0 0 0
                  }
                }
              }
            }
          }
        }
      }
      JOINT Bip01_Spine
      {
        OFFSET 9.14835 -0.00640869 -1.1e-005
        CHANNELS 6 Xposition Yposition Zposition Zrotation Xrotation Yrotation
        JOINT Bip01_Spine1
        {
          OFFSET 8.04366 -0.00638199 0
          CHANNELS 6 Xposition Yposition Zposition Zrotation Xrotation Yrotation
          JOINT Bip01_Spine2
          {
            OFFSET 8.04367 -0.00639343 0
            CHANNELS 6 Xposition Yposition Zposition Zrotation Xrotation Yrotation
            JOINT Bip01_Spine3
            {
              OFFSET 8.04304 -0.00831222 0
              CHANNELS 6 Xposition Yposition Zposition Zrotation Xrotation Yrotation
              JOINT Bip01_Neck
              {
                OFFSET 10.6685 1.06813 0
                CHANNELS 6 Xposition Yposition Zposition Zrotation Xrotation Yrotation
                JOINT Bip01_R_Clavicle
                {
                  OFFSET -3.21661 -4.89635 -9.04802
                  CHANNELS 6 Xposition Yposition Zposition Zrotation Xrotation Yrotation
                  JOINT Bip01_R_UpperArm
                  {
                    OFFSET 19.0492 0 0
                    CHANNELS 6 Xposition Yposition Zposition Zrotation Xrotation Yrotation
                    JOINT Bip01_R_Forearm
                    {
                      OFFSET 10.3706 0 0
                      CHANNELS 6 Xposition Yposition Zposition Zrotation Xrotation Yrotation
                      JOINT Bip01_R_Hand
                      {
                        OFFSET 22.8632 0 0
                        CHANNELS 6 Xposition Yposition Zposition Zrotation Xrotation Yrotation
                        JOINT Bip01_R_Finger0
                        {
                          OFFSET 6.48259 0.103651 0.504496
                          CHANNELS 6 Xposition Yposition Zposition Zrotation Xrotation Yrotation
                          JOINT Bip01_R_Finger01
                          {
                            OFFSET 3.66847 0 0
                            CHANNELS 6 Xposition Yposition Zposition Zrotation Xrotation Yrotation
                            End Site
                            {
                              OFFSET 0 0 0
                            }
                          }
                        }
                      }
                    }
                  }
                }
                JOINT Bip01_L_Clavicle
                {
                  OFFSET -3.21661 -4.89641 9.04797
                  CHANNELS 6 Xposition Yposition Zposition Zrotation Xrotation Yrotation
                  JOINT Bip01_L_UpperArm
                  {
                    OFFSET 19.0492 0 0
                    CHANNELS 6 Xposition Yposition Zposition Zrotation Xrotation Yrotation
                    JOINT Bip01_L_Forearm
                    {
                      OFFSET 10.3706 0 0
                      CHANNELS 6 Xposition Yposition Zposition Zrotation Xrotation Yrotation
                      JOINT Bip01_L_Hand
                      {
                        OFFSET 22.8631 0 0
                        CHANNELS 6 Xposition Yposition Zposition Zrotation Xrotation Yrotation
                        JOINT Bip01_L_Finger0
                        {
                          OFFSET 6.48257 0.103655 -0.504492
                          CHANNELS 6 Xposition Yposition Zposition Zrotation Xrotation Yrotation
                          JOINT Bip01_L_Finger01
                          {
                            OFFSET 3.66844 0 0
                            CHANNELS 6 Xposition Yposition Zposition Zrotation Xrotation Yrotation
                            End Site
                            {
                              OFFSET 0 0 0
                            }
                          }
                        }
                      }
                    }
                  }
                }
                JOINT Bip01_Neck1
                {
                  OFFSET 7.52459 -0.00656509 0
                  CHANNELS 6 Xposition Yposition Zposition Zrotation Xrotation Yrotation
                  JOINT Bip01_Neck2
                  {
                    OFFSET 8.4783 -0.00588226 0
                    CHANNELS 6 Xposition Yposition Zposition Zrotation Xrotation Yrotation
                    JOINT Bip01_Head
                    {
                      OFFSET 8.41606 0 0
                      CHANNELS 6 Xposition Yposition Zposition Zrotation Xrotation Yrotation
                      JOINT EyesBlue
                      {
                        OFFSET 0 0 0
                        CHANNELS 6 Xposition Yposition Zposition Zrotation Xrotation Yrotation
                        JOINT EyesBlue_2
                        {
                          OFFSET 0 -0.500007 0
                          CHANNELS 6 Xposition Yposition Zposition Zrotation Xrotation Yrotation
                          End Site
                          {
                            OFFSET 0 0 0
                          }
                        }
                      }
                      JOINT Bip01_Head2_Eyeleds
                      {
                        OFFSET 6.52751 7.61746 2.2e-005
                        CHANNELS 6 Xposition Yposition Zposition Zrotation Xrotation Yrotation
                        End Site
                        {
                          OFFSET 0 0 0
                        }
                      }
                      JOINT Bip01_Head_Muzzle
                      {
                        OFFSET 2.88628 13.9448 3.88994
                        CHANNELS 6 Xposition Yposition Zposition Zrotation Xrotation Yrotation
                        End Site
                        {
                          OFFSET 0 0 0
                        }
                      }
                      JOINT Bip01_Head1_Jaw
                      {
                        OFFSET 0.271065 1.32405 0
                        CHANNELS 6 Xposition Yposition Zposition Zrotation Xrotation Yrotation
                        JOINT _Bip01_Head11_TungeControler
                        {
                          OFFSET 4.61616 5.82872 0
                          CHANNELS 6 Xposition Yposition Zposition Zrotation Xrotation Yrotation
                          JOINT _Bip01_Ponytail3_tunge
                          {
                            OFFSET 5.17785 2.98805 0
                            CHANNELS 6 Xposition Yposition Zposition Zrotation Xrotation Yrotation
                            JOINT Bip01_Ponytail31
                            {
                              OFFSET 5.57569 0 0
                              CHANNELS 6 Xposition Yposition Zposition Zrotation Xrotation Yrotation
                              JOINT Bip01_Ponytail32
                              {
                                OFFSET 2.93165 0 0
                                CHANNELS 6 Xposition Yposition Zposition Zrotation Xrotation Yrotation
                                JOINT Bip01_Ponytail3Nub
                                {
                                  OFFSET 3.30155 0 0
                                  CHANNELS 6 Xposition Yposition Zposition Zrotation Xrotation Yrotation
                                  End Site
                                  {
                                    OFFSET 0 0 0
                                  }
                                }
                              }
                            }
                          }
                        }
                        JOINT Bip01_Head_JawNub
                        {
                          OFFSET 15.5776 -0.000389099 0
                          CHANNELS 6 Xposition Yposition Zposition Zrotation Xrotation Yrotation
                          End Site
                          {
                            OFFSET 0 0 0
                          }
                        }
                      }
                      JOINT Bip01_Ponytail2
                      {
                        OFFSET 9.40334 1.03973 -6.51764
                        CHANNELS 6 Xposition Yposition Zposition Zrotation Xrotation Yrotation
                        JOINT Bip01_Ponytail21
                        {
                          OFFSET 2.77018 -0.00640106 1.33514e-005
                          CHANNELS 6 Xposition Yposition Zposition Zrotation Xrotation Yrotation
                          End Site
                          {
                            OFFSET 0 0 0
                          }
                        }
                      }
                      JOINT Bip01_Ponytail1
                      {
                        OFFSET 9.40368 1.03969 6.51768
                        CHANNELS 6 Xposition Yposition Zposition Zrotation Xrotation Yrotation
                        JOINT Bip01_Ponytail11
                        {
                          OFFSET 2.77018 -0.00640487 0
                          CHANNELS 6 Xposition Yposition Zposition Zrotation Xrotation Yrotation
                          End Site
                          {
                            OFFSET 0 0 0
                          }
                        }
                      }
                    }
                  }
                }
              }
            }
          }
        }
      }
    }
  }
}
MOTION
Frames:	4
Frame Time:	0.0333333
0 0 0 -0 -90 -0 0.979617 -28.7008 44.6453 89.8195 -1.91221 80.344 0 0 0 -89.9988 0.000152964 -78.9077 -6.3569 -3.85825 -1.24611 164.924 -4.83336 0.383916 10.3812 -0.008026 0.000217 -19.2017 -1.17652 5.58288 10.3808 -0.007804 0.000289 -14.7654 -1.058 5.21835 10.3841 -0.008094 0.000472 1.75628 -3.44296 8.14043 10.3841 -0.00811 -0.000332001 4.37478 2.94286 4.74884 8.60586e-006 -1.00211e-005 -8.75617 -88.127 8.9279 -172.955 19.7638 1e-006 -4.44089e-015 -82.2138 -7.24615e-005 -0.00127632 18.6534 7.10543e-015 1.77636e-015 -24.8894 4.34178 4.37153 5.09143 13.9567 2.00588e-006 110.207 1.18474 -4.86446 4.288 3e-006 -2.20268e-013 66.5007 0.00212187 0.000487632 3.85799 -1e-006 1.58096e-013 -39.5688 0.00101622 0.00209893 -1.86059e-005 1.40211e-005 8.75617 -129.251 10.7761 -175.878 19.7638 3e-006 1e-006 -90.5852 -2.12682e-005 0.00376811 18.6534 3e-006 1.15463e-014 -8.98519 -7.6025 -1.53593 5.09143 13.9567 3.05514e-007 100.549 -0.896512 4.91599 4.288 -2.66454e-014 -1e-006 51.413 0.00280629 0.000959168 3.85799 1.24256e-012 1e-006 -44.7616 0.000926472 0.00227871 8.97791 -0.0062102 1.76012 6.04843 -0.310042 -2.92588 8.04433 -0.006286 0.000100999 5.73912 -0.777263 -7.63028 8.04413 -0.006278 0.000110992 4.26664 -0.0507213 -4.31436 8.04445 -0.00822 0.000255 6.16625 -1.01666 -5.17335 10.6688 1.06807 4.49021e-005 -10.4616 -0.408551 4.44664 -2.7503 -4.66888 -9.31806 -128.33 -83.3702 156.534 19.0492 2.50466e-013 -3e-006 67.4471 -21.8357 -108.806 10.3706 2.13163e-014 1.77636e-015 -113.398 0.000563831 -0.00155578 22.8631 -9.99999e-007 1e-006 -9.4049 14.2034 9.91547 6.48257 0.103652 0.504497 -61.2394 -4.93679 -14.7072 3.66844 2.30038e-013 1e-006 14.7135 0.000657838 0.000809741 -4.13207 -4.79527 8.72442 144.208 83.9466 -80.0254 19.0492 2.06057e-013 -3e-006 75.1229 -1.056 88.6015 10.3706 3e-006 2.43361e-013 -124.919 0.000591227 -0.00179848 22.8631 -9.99999e-007 1e-006 21.4285 -20.7751 -12.7336 6.48255 0.103653 -0.504495 53.9273 11.4075 -10.5635 3.66843 -7.10542e-015 1e-006 25.8774 0.0020586 0.00127973 7.52728 -0.006645 -0.00033 9.74562 2.8132 10.1522 8.47684 -0.006458 0.000191998 15.3919 -1.65071 -4.8213 8.41605 -3e-006 -9.82548e-014 -105.612 0.174579 -2.3294 -3e-006 3e-006 -3e-006 -23.1098 1.37701e-015 90 2.89231e-007 -0.500004 1.66656e-005 -124.406 90 -145.594 0 0 0 -96.9566 7.01671e-015 -180 6.35158 14.1398 3.77628 -23.1994 1.38206e-015 90 0 0 0 -82.8364 -7.01671e-015 -180 0 0 0 -131.79 2.41058e-007 -1.73435e-005 0 0 0 144.741 -3.6106e-005 3.34677e-006 0 0 0 -1.17047 2.04632e-006 2.21973e-007 0 0 0 -23.6504 6.26655e-006 3.53738e-006 0 0 0 -26.1943 5.80306e-007 7.99325e-007 15.5776 -0.000396 -7.00003e-006 -3.18055e-015 1.73937e-016 -4.96962e-017 9.40347 1.03957 -6.51717 -14.5723 4.61194 10.2668 2.77012 -0.006023 0.002114 2.27246 -18.4987 -0.510475 9.40381 1.03954 6.5172 -14.5717 -4.60878 -10.2644 2.77011 -0.006008 -0.002105 2.27169 18.5004 0.512625 
0 0 0 -0 -90 -0 0.858545 -28.7008 45.0076 89.8583 -1.64769 81.2489 0 0 0 -89.9993 -0.000165164 -79.8775 -6.37671 -3.85825 -1.13814 164.04 -4.93656 -1.1879 10.3812 -0.008026 0.000217 -19.9403 -0.973619 4.03869 10.3808 -0.007804 0.000289 -13.1077 -0.386514 4.13956 10.3841 -0.008094 0.000472 2.47527 -3.44541 7.86263 10.3841 -0.00811 -0.000332001 5.41902 2.52794 4.53562 8.6388e-006 -1.00135e-005 -8.75617 -92.2116 8.06759 -173.263 19.7638 1e-006 -1.77636e-015 -86.5203 -3.13916e-005 -0.00127484 18.6534 -1.42109e-014 -4.44089e-015 -24.033 3.67218 4.66184 5.09143 13.9567 2.51113e-006 105.485 1.54283 -4.77764 4.288 3e-006 -2.30926e-013 58.4329 0.00203157 0.000779408 3.85799 -1e-006 1.42109e-013 -35.3 0.00117015 0.00201837 -1.86388e-005 1.40135e-005 8.75617 -127.751 10.6274 -177.088 19.7638 3e-006 1e-006 -90.6414 -2.50162e-005 0.0037681 18.6534 3e-006 1.06581e-014 -9.08725 -7.86731 -1.4284 5.09143 13.9567 3.14872e-007 102.406 -0.853304 4.90971 4.288 -2.13163e-014 -1e-006 51.0812 0.00280691 0.000975078 3.85799 1.34248e-012 1e-006 -43.8888 0.00095688 0.00226 9.00597 -0.00621018 1.60772 6.05008 -0.291263 -2.74833 8.04433 -0.006286 0.000100999 5.20565 -0.637029 -6.89514 8.04413 -0.006278 0.000110995 3.96077 0.00122053 -3.89748 8.04445 -0.00822 0.000255 5.97848 -0.916755 -4.67138 10.6688 1.06807 4.49204e-005 -10.4619 -0.396098 4.34597 -2.79101 -4.67375 -9.30347 -129.904 -83.5449 153.948 19.0492 2.2915e-013 -3e-006 67.3162 -23.7592 -108.02 10.3706 -1.42108e-014 6.21726e-015 -112.489 0.000539532 -0.00156536 22.8631 -9.99999e-007 1e-006 -10.0077 14.784 9.18373 6.48257 0.103652 0.504497 -61.8248 -4.78298 -14.757 3.66844 1.98952e-013 1e-006 12.8385 0.000633446 0.000830121 -4.09428 -4.79037 8.7449 145.973 84.1172 -84.2253 19.0492 1.75859e-013 -3e-006 76.4535 -4.9471 90.8741 10.3706 3e-006 1.44773e-013 -122.536 0.000517779 -0.00182354 22.8631 -9.99999e-007 1e-006 23.2379 -19.4142 -11.02 6.48255 0.103653 -0.504495 50.1969 12.0597 -9.79963 3.66843 1.77636e-014 1e-006 26.4862 0.00207157 0.00125782 7.52728 -0.006645 -0.000330001 9.74303 2.81128 10.1442 8.47684 -0.006458 0.000191999 15.3914 -1.65083 -4.82189 8.41605 -3e-006 -7.87149e-014 -104.572 0.78292 -2.36452 -3e-006 3e-006 -3e-006 -23.1098 1.37701e-015 90 2.92096e-007 -0.500004 1.66664e-005 -123.937 90 -146.063 0 0 0 -96.9566 -7.01671e-015 -180 6.32483 14.1353 3.77713 -23.1994 1.38206e-015 90 0 0 0 -82.8989 -7.01671e-015 -180 0 0 0 -131.827 1.46941e-006 -1.80324e-005 0 0 0 144.841 -3.2467e-005 3.73591e-006 0 0 0 -1.37037 1.63298e-006 1.84709e-007 0 0 0 -23.6879 4.3699e-006 2.446e-006 0 0 0 -26.1943 4.20903e-007 5.32103e-007 15.5776 -0.000396 -7.00002e-006 6.36111e-015 2.73329e-016 -2.48481e-016 9.40347 1.03957 -6.51717 -14.5607 4.58083 10.1255 2.77012 -0.006023 0.002114 2.27246 -18.4987 -0.510476 9.40381 1.03954 6.5172 -14.5601 -4.57783 -10.1234 2.77011 -0.006008 -0.002105 2.27169 18.5004 0.512625 
0 0 0 -0 -90 -0 0.662042 -28.7008 45.4786 89.906 -1.25325 82.5171 0 0 0 -89.9999 5.31681e-005 -81.2065 -6.40071 -3.85825 -0.989817 162.694 -4.8598 -2.9442 10.3812 -0.008026 0.000217 -21.032 -0.678874 2.10566 10.3808 -0.007804 0.000289 -10.2724 0.34551 2.81923 10.3841 -0.008094 0.000472 3.96575 -3.69213 7.66079 10.3841 -0.00811 -0.000332001 6.83352 1.24738 4.32785 8.68461e-006 -1.00048e-005 -8.75617 -96.0008 6.91471 -173.772 19.7638 1e-006 -2.66454e-015 -90.6442 8.01599e-006 -0.00127436 18.6534 7.10543e-015 -1.77636e-015 -23.557 2.93058 4.92534 5.09143 13.9567 2.80501e-006 98.5801 2.04826 -4.59452 4.288 3e-006 -2.32703e-013 46.6441 0.00182731 0.00117636 3.85799 -1e-006 1.03029e-013 -29.0011 0.00138623 0.00187947 -1.86846e-005 1.40048e-005 8.75617 -126.243 10.2136 -178.556 19.7638 3e-006 1e-006 -89.4854 1.62053e-005 0.00376817 18.6534 3e-006 1.64313e-014 -10.7489 -7.96546 -1.38773 5.09143 13.9567 3.36957e-007 105.534 -0.780436 4.89616 4.288 -1.95399e-014 -1e-006 50.5271 0.00279978 0.0010016 3.85799 1.38645e-012 1e-006 -42.42 0.00101337 0.00223304 9.04007 -0.00621016 1.39832 6.05149 -0.263174 -2.48327 8.04433 -0.006286 0.000100998 4.47109 -0.469218 -5.90623 8.04413 -0.006278 0.000110996 3.65738 0.0576045 -3.33799 8.04445 -0.00822 0.000255 5.60274 -0.775009 -3.99922 10.6688 1.06807 4.49477e-005 -10.4625 -0.359941 4.05393 -2.86042 -4.68209 -9.27807 -132.805 -83.8309 150.02 19.0492 2.00728e-013 -3e-006 67.6638 -25.8207 -106.777 10.3706 0 2.22045e-015 -111.585 0.000515037 -0.00157441 22.8631 -9.99999e-007 1e-006 -10.4469 15.4665 8.26621 6.48257 0.103652 0.504497 -62.3506 -4.64501 -14.8001 3.66844 1.66089e-013 1e-006 10.957 0.000607856 0.00084988 -4.02955 -4.78197 8.7794 149.226 84.3946 -90.1229 19.0492 1.40332e-013 -3e-006 78.5154 -7.36101 95.2419 10.3706 3e-006 3.64153e-014 -119.184 0.000412904 -0.00185266 22.8631 -9.99999e-007 1e-006 24.8567 -17.3898 -8.68055 6.48255 0.103653 -0.504495 44.4011 12.9599 -8.5291 3.66843 -3.55271e-014 1e-006 27.2926 0.00208864 0.00122863 7.52728 -0.006645 -0.000330002 9.73831 2.80743 10.1277 8.47684 -0.006458 0.000191999 15.4104 -1.65567 -4.83298 8.41605 -3e-006 -4.57412e-014 -103.149 1.48592 -2.45468 -3e-006 3e-006 -3e-006 -23.1098 1.37701e-015 90 2.95443e-007 -0.500004 1.66676e-005 180 90 -90 0 0 0 -96.9566 7.01671e-015 -180 6.29808 14.1308 3.77798 -23.1994 1.38206e-015 90 0 0 0 -82.9614 -7.01671e-015 -180 0 0 0 -131.865 2.93634e-006 -1.88313e-005 0 0 0 144.941 -2.82322e-005 4.20277e-006 0 0 0 -1.57027 9.71715e-007 1.12324e-007 0 0 0 -23.7254 2.34708e-006 1.25764e-006 0 0 0 -26.1943 2.38222e-007 2.27098e-007 15.5776 -0.000396 -7.00001e-006 -6.46568e-035 2.48481e-017 1.49089e-016 9.40347 1.03957 -6.51717 -14.5453 4.53801 9.93189 2.77012 -0.006023 0.002114 2.27246 -18.4987 -0.510476 9.40381 1.03954 6.5172 -14.5447 -4.53573 -9.92976 2.77011 -0.006008 -0.002105 2.27169 18.5004 0.512625 
0 0 0 -0 -90 -0 0.432628 -28.7008 45.9824 89.9498 -0.803231 83.982 0 0 0 -90.0002 0.000223597 -82.748 -6.42444 -3.85825 -0.817243 161.054 -4.58522 -4.69047 10.3812 -0.008026 0.000217 -22.3425 -0.296478 -0.0492446 10.3808 -0.007804 0.000289 -6.63141 1.04217 1.32386 10.3841 -0.008094 0.000472 5.97406 -4.0946 7.48563 10.3841 -0.00811 -0.000332001 8.45535 -0.601817 4.14072 8.73858e-006 -9.99764e-006 -8.75617 -99.996 5.56178 -174.414 19.7638 1e-006 6.21725e-015 -94.5863 5.09615e-005 -0.00127431 18.6534 7.10543e-015 3.55271e-015 -22.454 2.31048 5.09426 5.09143 13.9567 3.12866e-006 91.1764 2.56376 -4.33851 4.288 3e-006 -2.38032e-013 34.0342 0.00152541 0.0015457 3.85799 -1e-006 8.70415e-014 -22.3222 0.00159631 0.00170641 -1.87386e-005 1.39976e-005 8.75617 -124.823 9.55242 179.928 19.7638 3e-006 1e-006 -87.5884 7.82472e-005 0.00376822 18.6534 3e-006 1.24345e-014 -13.5163 -7.85697 -1.43013 5.09143 13.9567 3.81004e-007 109.622 -0.685892 4.87272 4.288 -3.01981e-014 -1e-006 49.8041 0.00278542 0.00103607 3.85799 1.35225e-012 1e-006 -40.5008 0.00108978 0.0021988 9.07391 -0.00621013 1.15466 6.0526 -0.229904 -2.16955 8.04433 -0.006286 0.000100998 3.62411 -0.307975 -4.76134 8.04413 -0.006278 0.000110998 3.36692 0.112473 -2.69179 8.04445 -0.00822 0.000254999 5.11174 -0.612965 -3.22279 10.6688 1.06807 4.49783e-005 -10.4634 -0.301855 3.58501 -2.95539 -4.69344 -9.2423 -137.231 -84.1951 144.543 19.0492 1.54543e-013 -3e-006 68.3788 -27.8125 -105.152 10.3706 7.10542e-015 6.21726e-015 -110.647 0.000489306 -0.00158331 22.8631 -9.99999e-007 1e-006 -10.7217 16.1989 7.26265 6.48257 0.103652 0.504497 -62.977 -4.47999 -14.8498 3.66844 1.25233e-013 1e-006 9.02519 0.000580464 0.000869401 -3.94028 -4.77036 8.82594 154.258 84.7369 -97.5956 19.0492 1.08358e-013 -3e-006 80.9576 -9.13027 99.5992 10.3706 3e-006 -2.22045e-014 -115.185 0.000285005 -0.00187811 22.8631 -9.99999e-007 1e-006 25.7929 -14.9961 -6.33803 6.48255 0.103653 -0.504495 36.648 13.948 -6.70445 3.66843 7.10542e-015 1e-006 28.237 0.00210805 0.00119428 7.52728 -0.006645 -0.000330004 9.73159 2.80213 10.1052 8.47684 -0.006458 0.000191999 15.4411 -1.66342 -4.85057 8.41605 -3e-006 -7.32748e-015 -101.52 2.18178 -2.59306 -3e-006 3e-006 -3e-006 -23.1098 1.37701e-015 90 2.98946e-007 -0.500004 1.66693e-005 180 90 -90 0 0 0 -96.9566 7.01671e-015 -180 6.27133 14.1264 3.77882 -23.1994 1.38206e-015 90 0 0 0 -83.0238 7.01671e-015 -180 0 0 0 -131.902 4.46996e-006 -1.95959e-005 0 0 0 145.041 -2.4528e-005 4.72224e-006 0 0 0 -1.77017 4.08564e-007 3.35147e-008 0 0 0 -23.7628 7.80411e-007 2.72344e-007 0 0 0 -26.1943 7.30825e-008 -7.14382e-008 15.5776 -0.000396 -7.00001e-006 3.18055e-015 0 -9.93923e-017 9.40347 1.03957 -6.51717 -14.5291 4.49277 9.72583 2.77012 -0.006023 0.002114 2.27246 -18.4987 -0.510476 9.40381 1.03954 6.5172 -14.5286 -4.49078 -9.72396 2.77011 -0.006008 -0.002105 2.27169 18.5004 0.512625 
